<svg xmlns="http://www.w3.org/2000/svg" xmlns:xlink="http://www.w3.org/1999/xlink" version="1.1" id="Layer_1" x="0px" y="0px" viewBox="0 0 68.8 68.3" style="enable-background:new 0 0 68.8 68.3;" xml:space="preserve">
 <style type="text/css">
  .st0{clip-path:url(#SVGID_2_);fill:url(#SVGID_3_);}
	.st1{clip-path:url(#SVGID_5_);fill:url(#SVGID_6_);}
	.st2{clip-path:url(#SVGID_8_);fill:url(#SVGID_9_);}
	.st3{clip-path:url(#SVGID_11_);fill:url(#SVGID_12_);}
	.st4{clip-path:url(#SVGID_14_);fill:url(#SVGID_15_);}
 </style>
 <g>
  <g>
   <defs>
    <path id="SVGID_1_" d="M28.6,1.9c-2,0.2-20.9,2.4-22.5,6.7c-0.2,0.6-0.3,1.2,1.4,3.5c0.3,0.4,4.6,5.9,10.4,9.5h0.5     C14.1,18.3,11.6,15,11,13c0-0.2-0.1-0.3-0.1-0.5c0-0.8,0.2-1.7,1.7-2.2c1.6-0.5,9.3-1.2,17.3-0.6c8.2,0.6,13.8,1.9,15.7,3.7l0,0     c-2.5,1.4-31,18.6-38.8,24c-10.2,7-3.9,15.7-1.2,18C9,58.3,14,60.2,19,61.6c0,0,0,0,0,0c0,0,0,0,0,0c5.8,1.6,11.4,2.4,14.1,2.8     c4.3,0.7,31.2,5.4,33.3-1.1c1.1-3.6-4.9-7.8-6.5-8.9c0,0,0,0,0,0c-0.7-0.5-10.5-7.4-14.3-10l-0.6,0c2.9,2.3,8.7,7.4,10.7,9.1     c2.3,1.9,6.1,6.4,3.8,7.3c-0.1,0-0.1,0-0.2,0.1c-2.6,0.5-8.1-0.7-15.3-3.5c-8.3-3.2-18.1-8.1-20.6-12.3c0,0,25.2-15.6,35.4-22.5     c13-8.8,7.9-16,5-18c-3.6-2.5-9.9-3.4-16.4-3.6c-0.1,0-0.1,0-0.1,0c0,0-0.1,0-0.1,0c0,0,0,0,0,0C46,1,45,1,43.9,1     C37.8,1,32,1.5,28.6,1.9">
    </path>
   </defs>
   <clipPath id="SVGID_2_">
    <use href="#SVGID_1_" style="overflow:visible;">
    </use>
   </clipPath>
   <linearGradient id="SVGID_3_" gradientUnits="userSpaceOnUse" x1="-272.9282" y1="468.7789" x2="-271.0623" y2="468.7789" gradientTransform="matrix(29.9669 17.3014 17.3014 -29.9669 69.7507 18786.4219)">
    <stop offset="0" style="stop-color:#FFDD00">
    </stop>
    <stop offset="0.411" style="stop-color:#F37021">
    </stop>
    <stop offset="0.475" style="stop-color:#F4761F">
    </stop>
    <stop offset="0.5596" style="stop-color:#F5861A">
    </stop>
    <stop offset="0.6556" style="stop-color:#F8A212">
    </stop>
    <stop offset="0.7593" style="stop-color:#FDC806">
    </stop>
    <stop offset="0.8098" style="stop-color:#FFDD00">
    </stop>
    <stop offset="1" style="stop-color:#FFDD00">
    </stop>
   </linearGradient>
   <polygon class="st0" points="15.4,-31.6 101.6,18.2 53,102.4 -33.3,52.6   ">
   </polygon>
  </g>
  <g>
   <defs>
    <path id="SVGID_4_" d="M59.3,61C59.3,61,59.3,61,59.3,61C59.3,61,59.3,61,59.3,61 M59.3,61C59.3,61,59.3,61,59.3,61     C59.3,61,59.3,61,59.3,61C59.3,61,59.3,61,59.3,61 M59.3,61C59.3,61,59.3,61,59.3,61C59.3,61,59.3,61,59.3,61 M45,44.5     c2.9,2.3,8.7,7.4,10.7,9.1c2.3,1.9,6.1,6.4,3.8,7.3c-0.1,0-0.1,0-0.2,0.1c0,0,0,0,0,0c0,0,0,0,0,0c0,0,0,0,0,0c0,0,0,0,0,0     c0.9-0.2,1.5-0.4,1.8-0.7c0,0,1.9-1.4,0.2-4.2C61,55.7,60,54.5,60,54.5c0,0,0,0,0,0c-0.7-0.5-10.5-7.4-14.3-10L45,44.5z">
    </path>
   </defs>
   <clipPath id="SVGID_5_">
    <use xlink:href="#SVGID_4_" style="overflow:visible;">
    </use>
   </clipPath>
   <linearGradient id="SVGID_6_" gradientUnits="userSpaceOnUse" x1="-306.6925" y1="523.4517" x2="-304.8265" y2="523.4517" gradientTransform="matrix(5.4946 0 0 -5.4946 1730.1482 2928.8933)">
    <stop offset="0" style="stop-color:#FBAD18">
    </stop>
    <stop offset="0.5569" style="stop-color:#F47520">
    </stop>
    <stop offset="0.6012" style="stop-color:#F37021">
    </stop>
    <stop offset="1" style="stop-color:#F37021">
    </stop>
   </linearGradient>
   <rect x="45" y="44.5" class="st1" width="18.1" height="16.5">
   </rect>
  </g>
  <g>
   <defs>
    <path id="SVGID_7_" d="M28.6,1.9c-2,0.2-20.9,2.4-22.5,6.7c-0.2,0.6-0.3,1.2,1.4,3.5c0.3,0.4,4.6,5.9,10.4,9.5h0.5     C14.1,18.3,11.6,15,11,13c0-0.2-0.1-0.3-0.1-0.5c0,0,0,0,0,0c-0.1-1.2,0.2-3.3,5.9-6.1c7.6-3.8,26.6-5.3,30.4-5.3     C46,1,45,1,43.9,1C37.8,1,32,1.5,28.6,1.9">
    </path>
   </defs>
   <clipPath id="SVGID_8_">
    <use xlink:href="#SVGID_7_" style="overflow:visible;">
    </use>
   </clipPath>
   <linearGradient id="SVGID_9_" gradientUnits="userSpaceOnUse" x1="-281.001" y1="489.8938" x2="-279.135" y2="489.8938" gradientTransform="matrix(13.5367 0 0 -13.5367 3809.7959 6642.8589)">
    <stop offset="0" style="stop-color:#FFDD00">
    </stop>
    <stop offset="0.1329" style="stop-color:#FCC308">
    </stop>
    <stop offset="0.4581" style="stop-color:#F6871A">
    </stop>
    <stop offset="0.6135" style="stop-color:#F37021">
    </stop>
    <stop offset="1" style="stop-color:#F37021">
    </stop>
   </linearGradient>
   <rect x="5.8" y="1" class="st2" width="41.4" height="20.6">
   </rect>
  </g>
  <g>
   <defs>
    <path id="SVGID_10_" d="M53.1,5.9c0.3,2.8-4.5,5.6-7.5,7.5l0,0c-2.5,1.4-31,18.6-38.8,24c-10.2,7-3.9,15.7-1.2,18     c3.5,2.9,8.5,4.8,13.4,6.2c-2.5-0.7-4.5-2.2-5.4-4c-1.2-2.2-1.3-5.1,3.4-8.3c0.9-0.6,3.3-2.1,6.4-4.1c0,0,25.2-15.6,35.4-22.5     c13-8.8,7.9-16,5-18c-3.6-2.5-9.9-3.4-16.4-3.6C48.2,1.1,52.7,1.7,53.1,5.9">
    </path>
   </defs>
   <clipPath id="SVGID_11_">
    <use xlink:href="#SVGID_10_" style="overflow:visible;">
    </use>
   </clipPath>
   <linearGradient id="SVGID_12_" gradientUnits="userSpaceOnUse" x1="-268.8251" y1="473.7771" x2="-266.9591" y2="473.7771" gradientTransform="matrix(35.4341 0 0 -35.4341 9526.7119 16819.207)">
    <stop offset="0" style="stop-color:#F37021">
    </stop>
    <stop offset="0.2329" style="stop-color:#F9A511">
    </stop>
    <stop offset="0.4353" style="stop-color:#FDCE05">
    </stop>
    <stop offset="0.5399" style="stop-color:#FFDD00">
    </stop>
    <stop offset="0.7021" style="stop-color:#FBBA0B">
    </stop>
    <stop offset="1" style="stop-color:#F37021">
    </stop>
   </linearGradient>
   <rect x="-3.5" y="1.1" class="st3" width="75.3" height="60.5">
   </rect>
  </g>
  <g>
   <defs>
    <path id="SVGID_13_" d="M59.3,61C59.3,61,59.3,61,59.3,61C59.3,61,59.3,61,59.3,61 M59.3,61C59.3,61,59.3,61,59.3,61L59.3,61     C59.3,61,59.3,61,59.3,61C59.3,61,59.3,61,59.3,61 M61.3,56.1c1.7,2.8-0.2,4.2-0.2,4.2c-0.3,0.3-0.9,0.5-1.8,0.7c0,0,0,0,0,0     c0,0,0,0,0,0c0,0,0,0,0,0h0h0c0,0,0,0,0,0c0,0,0,0,0,0c0,0,0,0,0,0c0,0,0,0,0,0c-0.1,0-0.2,0.1-0.4,0.1     c-5.7,0.9-37.8,1.1-39.9,0.6c5.8,1.6,11.4,2.4,14.1,2.8c4.3,0.7,31.2,5.4,33.3-1.1c1.1-3.6-4.9-7.8-6.5-8.9     C60,54.5,61,55.7,61.3,56.1">
    </path>
   </defs>
   <clipPath id="SVGID_14_">
    <use xlink:href="#SVGID_13_" style="overflow:visible;">
    </use>
   </clipPath>
   <linearGradient id="SVGID_15_" gradientUnits="userSpaceOnUse" x1="-271.4749" y1="477.2215" x2="-269.6089" y2="477.2215" gradientTransform="matrix(25.4924 0 0 -25.4924 6939.5522 12227.6719)">
    <stop offset="0" style="stop-color:#F37021">
    </stop>
    <stop offset="0.2088" style="stop-color:#F5811C">
    </stop>
    <stop offset="0.6226" style="stop-color:#FAAF0E">
    </stop>
    <stop offset="1" style="stop-color:#FFDD00">
    </stop>
   </linearGradient>
   <rect x="19" y="54.5" class="st4" width="48.6" height="15.4">
   </rect>
  </g>
 </g>
</svg>